<?xml version="1.0" encoding="UTF-8" standalone="no"?>
<!DOCTYPE svg PUBLIC "-//W3C//DTD SVG 1.1//EN" "http://www.w3.org/Graphics/SVG/1.1/DTD/svg11.dtd">
<svg width="100%" height="100%" viewBox="0 0 512 512" version="1.1" xmlns="http://www.w3.org/2000/svg" xmlns:xlink="http://www.w3.org/1999/xlink" xml:space="preserve" xmlns:serif="http://www.serif.com/" style="fill-rule:evenodd;clip-rule:evenodd;stroke-linejoin:round;stroke-miterlimit:2;">
    <g transform="matrix(11,0,0,11,256,256)">
        <g transform="matrix(1,0,0,1,-18,-18)">
            <path d="M4,11L4,11.137C4,11.095 4.011,11.053 4.015,11.011L4,11ZM17,22.137C16.854,22.07 16.713,21.992 16.588,21.891L4.565,12.245C4.188,11.94 4,11.539 4,11.137L4,23.375C4,25.417 5.093,25.859 5.093,25.859L16.667,34.958C16.872,35.119 17.044,35.217 17.195,35.276C17.081,35.102 17,34.901 17,34.672L17,22.137ZM8.227,22.5C7.233,22.5 6.194,21.493 5.908,20.25C5.621,19.008 6.195,18.001 7.188,18.001C8.182,18.001 9.221,19.008 9.507,20.25C9.794,21.493 9.221,22.5 8.227,22.5ZM13.81,30C12.816,30 11.777,28.992 11.491,27.75C11.204,26.507 11.778,25.5 12.772,25.5C13.766,25.5 14.805,26.507 15.091,27.75C15.377,28.992 14.804,30 13.81,30Z" style="fill:rgb(160,4,30);fill-rule:nonzero;"/>
            <path d="M31.435,12.161L19.331,21.891C19.229,21.974 19.117,22.043 19,22.103L19,34.672C19,34.905 18.917,35.109 18.8,35.286C18.955,35.228 19.135,35.126 19.348,34.958C21.169,33.526 30.936,25.859 30.936,25.859C30.936,25.859 32,25.417 32,23.375L32,11.053C32,11.455 31.812,11.856 31.435,12.161ZM23.978,28.892C23.736,30.029 22.859,30.95 22.02,30.95C21.182,30.95 20.698,30.029 20.94,28.892C21.182,27.755 22.058,26.834 22.897,26.834C23.736,26.834 24.219,27.755 23.978,28.892ZM27.516,23.621C27.262,24.793 26.338,25.742 25.454,25.742C24.571,25.742 24.062,24.793 24.316,23.621C24.571,22.449 25.495,21.5 26.377,21.5C27.262,21.5 27.771,22.449 27.516,23.621ZM30.579,18.516C30.328,19.631 29.416,20.533 28.544,20.533C27.672,20.533 27.169,19.631 27.421,18.516C27.672,17.403 28.583,16.5 29.455,16.5C30.328,16.5 30.831,17.403 30.579,18.516ZM31.994,11.005C31.995,11.021 32,11.037 32,11.053L32,11L31.994,11.005Z" style="fill:rgb(221,46,68);fill-rule:nonzero;"/>
            <path d="M31.435,9.945L19.289,0.5C18.536,-0.11 17.301,-0.11 16.547,0.5L4.565,10.029C4.227,10.302 4.05,10.653 4.014,11.012C4.011,11.054 4,11.095 4,11.137C4,11.539 4.188,11.94 4.565,12.245L16.588,21.891C16.713,21.992 16.853,22.069 17,22.137L17,34.672C17,34.901 17.081,35.102 17.194,35.276C17.375,35.556 17.66,35.75 18,35.75C18.336,35.75 18.619,35.56 18.8,35.286C18.917,35.11 19,34.906 19,34.672L19,22.103C19.117,22.043 19.229,21.974 19.331,21.891L31.435,12.161C31.812,11.856 32,11.455 32,11.053C32,11.037 31.995,11.021 31.994,11.004C31.98,10.619 31.796,10.237 31.435,9.945ZM18.5,8.667C20.11,8.667 21.416,9.711 21.416,11C21.416,12.289 20.11,13.333 18.5,13.333C16.889,13.333 15.584,12.289 15.584,11C15.584,9.711 16.889,8.667 18.5,8.667Z" style="fill:rgb(234,89,110);fill-rule:nonzero;"/>
            <ellipse cx="18.5" cy="11" rx="2.916" ry="2.333" style="fill:white;"/>
            <path d="M29.455,16.5C28.583,16.5 27.672,17.403 27.421,18.516C27.169,19.631 27.672,20.533 28.544,20.533C29.416,20.533 30.328,19.631 30.579,18.516C30.831,17.403 30.328,16.5 29.455,16.5ZM26.378,21.5C25.495,21.5 24.571,22.449 24.317,23.621C24.063,24.793 24.572,25.742 25.455,25.742C26.339,25.742 27.263,24.793 27.517,23.621C27.771,22.449 27.262,21.5 26.378,21.5ZM22.896,26.834C22.057,26.834 21.181,27.755 20.939,28.892C20.697,30.029 21.181,30.95 22.019,30.95C22.858,30.95 23.735,30.029 23.977,28.892C24.219,27.755 23.735,26.834 22.896,26.834Z" style="fill:white;fill-rule:nonzero;"/>
            <path d="M7.188,18.001C6.194,18.001 5.621,19.008 5.908,20.25C6.195,21.493 7.233,22.5 8.227,22.5C9.221,22.5 9.794,21.493 9.507,20.25C9.221,19.008 8.182,18.001 7.188,18.001ZM12.771,25.5C11.777,25.5 11.204,26.507 11.49,27.75C11.777,28.992 12.816,30 13.81,30C14.804,30 15.377,28.992 15.091,27.75C14.804,26.507 13.765,25.5 12.771,25.5Z" style="fill:rgb(225,232,237);fill-rule:nonzero;"/>
        </g>
    </g>
</svg>
